# xmcd
#
# Track frame offsets:
#	150
#	14249
#	31898
#	53465
#	70626
#	89385
#	113772
#	127871
#	145516
#	166719
#	183904
#	202691
#
# Disc length: 3026 seconds
#
# Revision: 1
# Processed by: cddbd v1.5.2PL0 Copyright (c) Steve Scherf et al.
# Submitted via: audiograbber 1.83.01
#
DISCID=8a0bd00c
DTITLE=Vince Gill - Chartbuster vol 1 disc 113
DYEAR=1900
DGENRE=karaoke
TTITLE0=What The Cowgirls Do (vocal)
TTITLE1=Don't Let Our Love Start Slippin' Away (vocal)
TTITLE2=If You Ever Have Forever In Mind (vocal)
TTITLE3=Pretty Little Adriana (vocal)
TTITLE4=I Still Believe In You (vocal)
TTITLE5=Go Rest High On That Mountain (vocal)
TTITLE6=What The Cowgirls Do
TTITLE7=Don't Let Our Love Start Slippin' Away
TTITLE8=If You Ever Have Forever In Mind
TTITLE9=Pretty Little Adriana
TTITLE10=I Still Believe In You
TTITLE11=Go Rest High On That Mountain
EXTD=
EXTT0=
EXTT1=
EXTT2=
EXTT3=
EXTT4=
EXTT5=
EXTT6=
EXTT7=
EXTT8=
EXTT9=
EXTT10=
EXTT11=
PLAYORDER=
